{
  "accessors": [
    {
      "bufferView": 2,
      "componentType": 5126,
      "count": 1230,
      "max": [0.06106100231409073, 0.2274949997663498, 0.06106100231409073],
      "min": [-0.06106100231409073, -0.00038900226354599, -0.06106100231409073],
      "type": "VEC3"
    },
    {
      "bufferView": 2,
      "byteOffset": 14760,
      "componentType": 5126,
      "count": 1230,
      "max": [1.0, 0.44041797518730164, 1.0],
      "min": [-1.0, -1.0, -1.0],
      "type": "VEC3"
    },
    {
      "bufferView": 3,
      "componentType": 5126,
      "count": 1230,
      "max": [0.7678184509277344, 1.0, 0.9989507794380188, 1.0],
      "min": [
        -0.7678183913230896, -0.731231689453125, -0.7680655717849731, -1.0
      ],
      "type": "VEC4"
    },
    {
      "bufferView": 1,
      "componentType": 5126,
      "count": 1230,
      "max": [0.8755080103874207, 0.9861130118370056],
      "min": [0.013167999684810638, 0.013886988162994385],
      "type": "VEC2"
    },
    {
      "bufferView": 0,
      "componentType": 5125,
      "count": 6720,
      "type": "SCALAR"
    },
    {
      "bufferView": 2,
      "byteOffset": 29520,
      "componentType": 5126,
      "count": 1291,
      "max": [0.0493990033864975, 0.2318650186061859, 0.0493990033864975],
      "min": [-0.0493990033864975, 0.2263070046901703, -0.0493990033864975],
      "type": "VEC3"
    },
    {
      "bufferView": 2,
      "byteOffset": 45012,
      "componentType": 5126,
      "count": 1291,
      "max": [0.9843558669090271, 1.0, 0.9843558669090271],
      "min": [-0.9843558669090271, -1.0, -0.9843558669090271],
      "type": "VEC3"
    },
    {
      "bufferView": 3,
      "byteOffset": 19680,
      "componentType": 5126,
      "count": 1291,
      "max": [0.9999854564666748, 0.9843067526817322, 1.0, -1.0],
      "min": [
        -0.9998663067817688, -0.9843503832817078, -0.9999999403953552, -1.0
      ],
      "type": "VEC4"
    },
    {
      "bufferView": 1,
      "byteOffset": 9840,
      "componentType": 5126,
      "count": 1291,
      "max": [0.9993969798088074, 0.5201410055160522],
      "min": [0.00060299999313429, 0.000603020191192627],
      "type": "VEC2"
    },
    {
      "bufferView": 0,
      "byteOffset": 26880,
      "componentType": 5125,
      "count": 5982,
      "type": "SCALAR"
    },
    {
      "bufferView": 2,
      "byteOffset": 60504,
      "componentType": 5126,
      "count": 511,
      "max": [0.01492100115865469, 0.2315939962863922, 0.01439100131392479],
      "min": [-0.01492100115865469, 0.2291029989719391, -0.032186999917030334],
      "type": "VEC3"
    },
    {
      "bufferView": 2,
      "byteOffset": 66636,
      "componentType": 5126,
      "count": 511,
      "max": [0.9998920559883118, 1.0, 1.0],
      "min": [-0.9998920559883118, 0.0, -1.0],
      "type": "VEC3"
    },
    {
      "bufferView": 3,
      "byteOffset": 40336,
      "componentType": 5126,
      "count": 511,
      "max": [
        -0.00030166207579895854, 0.9997894167900085, 0.5440833568572998, -1.0
      ],
      "min": [-1.0, -0.998360276222229, -0.5222143530845642, -1.0],
      "type": "VEC4"
    },
    {
      "bufferView": 1,
      "byteOffset": 20168,
      "componentType": 5126,
      "count": 511,
      "max": [0.6832630038261414, 0.7370589971542358],
      "min": [0.5165299773216248, 0.48467499017715454],
      "type": "VEC2"
    },
    {
      "bufferView": 0,
      "byteOffset": 50808,
      "componentType": 5125,
      "count": 2094,
      "type": "SCALAR"
    }
  ],
  "asset": {
    "extras": {
      "author": "chickenpants93 (https://sketchfab.com/chickenpants93)",
      "license": "CC-BY-4.0 (http://creativecommons.org/licenses/by/4.0/)",
      "source": "https://sketchfab.com/3d-models/cool-ayyd-soda-can-a253b66202a64a56840ea4eb131e4fff",
      "title": "Cool-Ayyd Soda Can"
    },
    "generator": "Sketchfab-13.40.0",
    "version": "2.0"
  },
  "bufferViews": [
    {
      "buffer": 0,
      "byteLength": 59184,
      "name": "floatBufferViews",
      "target": 34963
    },
    {
      "buffer": 0,
      "byteLength": 24256,
      "byteOffset": 59184,
      "byteStride": 8,
      "name": "floatBufferViews",
      "target": 34962
    },
    {
      "buffer": 0,
      "byteLength": 72768,
      "byteOffset": 83440,
      "byteStride": 12,
      "name": "floatBufferViews",
      "target": 34962
    },
    {
      "buffer": 0,
      "byteLength": 48512,
      "byteOffset": 156208,
      "byteStride": 16,
      "name": "floatBufferViews",
      "target": 34962
    }
  ],
  "buffers": [
    {
      "byteLength": 204720,
      "uri": "scene.bin"
    }
  ],
  "images": [
    {
      "uri": "textures/material_baseColor.png"
    },
    {
      "uri": "textures/material_metallicRoughness.png"
    },
    {
      "uri": "textures/material_normal.png"
    },
    {
      "uri": "textures/material_1_baseColor.png"
    },
    {
      "uri": "textures/material_1_metallicRoughness.png"
    },
    {
      "uri": "textures/material_1_normal.png"
    }
  ],
  "materials": [
    {
      "name": "material",
      "normalTexture": {
        "index": 2
      },
      "occlusionTexture": {
        "index": 1
      },
      "pbrMetallicRoughness": {
        "baseColorTexture": {
          "index": 0
        },
        "metallicRoughnessTexture": {
          "index": 1
        }
      }
    },
    {
      "name": "material_1",
      "normalTexture": {
        "index": 5
      },
      "occlusionTexture": {
        "index": 4
      },
      "pbrMetallicRoughness": {
        "baseColorTexture": {
          "index": 3
        },
        "metallicRoughnessTexture": {
          "index": 4
        }
      }
    }
  ],
  "meshes": [
    {
      "name": "Can",
      "primitives": [
        {
          "attributes": {
            "NORMAL": 1,
            "POSITION": 0,
            "TANGENT": 2,
            "TEXCOORD_0": 3
          },
          "indices": 4,
          "material": 0,
          "mode": 4
        }
      ]
    },
    {
      "name": "Lid",
      "primitives": [
        {
          "attributes": {
            "NORMAL": 6,
            "POSITION": 5,
            "TANGENT": 7,
            "TEXCOORD_0": 8
          },
          "indices": 9,
          "material": 1,
          "mode": 4
        }
      ]
    },
    {
      "name": "Tab",
      "primitives": [
        {
          "attributes": {
            "NORMAL": 11,
            "POSITION": 10,
            "TANGENT": 12,
            "TEXCOORD_0": 13
          },
          "indices": 14,
          "material": 1,
          "mode": 4
        }
      ]
    }
  ],
  "nodes": [
    {
      "children": [1],
      "matrix": [
        1.0, 0.0, 0.0, 0.0, 0.0, 2.220446049250313e-16, -1.0, 0.0, 0.0, 1.0,
        2.220446049250313e-16, 0.0, 0.0, 0.0, 0.0, 1.0
      ],
      "name": "Sketchfab_model"
    },
    {
      "children": [2],
      "matrix": [
        1.0, 0.0, 0.0, 0.0, 0.0, 2.220446049250313e-16, 1.0, 0.0, 0.0, -1.0,
        2.220446049250313e-16, 0.0, 0.0, 0.0, 0.0, 1.0
      ],
      "name": "USDRoot"
    },
    {
      "children": [3],
      "name": "Soda_Can"
    },
    {
      "children": [4],
      "name": "Geom"
    },
    {
      "children": [5],
      "name": "SodaCan"
    },
    {
      "children": [6],
      "name": "Geom"
    },
    {
      "children": [7],
      "name": "SodaCan"
    },
    {
      "children": [8],
      "name": "Geom"
    },
    {
      "children": [9, 11, 13],
      "name": "SodaCan"
    },
    {
      "children": [10],
      "name": "Can"
    },
    {
      "mesh": 0,
      "name": "Can"
    },
    {
      "children": [12],
      "name": "Lid"
    },
    {
      "mesh": 1,
      "name": "Lid"
    },
    {
      "children": [14],
      "name": "Tab"
    },
    {
      "mesh": 2,
      "name": "Tab"
    }
  ],
  "samplers": [
    {
      "magFilter": 9729,
      "minFilter": 9987,
      "wrapS": 10497,
      "wrapT": 10497
    }
  ],
  "scene": 0,
  "scenes": [
    {
      "name": "Sketchfab_Scene",
      "nodes": [0]
    }
  ],
  "textures": [
    {
      "sampler": 0,
      "source": 0
    },
    {
      "sampler": 0,
      "source": 1
    },
    {
      "sampler": 0,
      "source": 2
    },
    {
      "sampler": 0,
      "source": 3
    },
    {
      "sampler": 0,
      "source": 4
    },
    {
      "sampler": 0,
      "source": 5
    }
  ]
}
